<svg id="Layer_1" data-name="Layer 1" xmlns="http://www.w3.org/2000/svg" viewBox="0 0 340.15 87.8"><defs><style>.cls-1{fill:#fff;}</style></defs><path class="cls-1" d="M125,15.41l-.07,0-5.83,13.83h-.9l-5.82-13.76h-.07l.12,6.81v5.85l1.76.14v.95h-4.8v-.95l1.76-.14V14.62l-1.76-.14v-1h3.45l5.77,13.82h.07l5.79-13.82h3.46v1l-1.76.14V28.13l1.76.14v.95h-4.8v-.95l1.76-.14V22.28Z"/><path class="cls-1" d="M137.75,29.22c-.08-.39-.15-.74-.18-1a6.4,6.4,0,0,1-.06-.88,5.09,5.09,0,0,1-1.72,1.52,4.82,4.82,0,0,1-2.43.61,3.71,3.71,0,0,1-2.65-.89,3.09,3.09,0,0,1-.94-2.39,3,3,0,0,1,1.39-2.57,6.65,6.65,0,0,1,3.78-1h2.57V21.11a2.46,2.46,0,0,0-.8-2,3.24,3.24,0,0,0-2.25-.72,5.48,5.48,0,0,0-1.77.27,3.94,3.94,0,0,0-1.35.72l-.1,1.56h-1.07V18.74a6.6,6.6,0,0,1,1.94-1,7.28,7.28,0,0,1,2.4-.39,4.65,4.65,0,0,1,3.1,1,3.43,3.43,0,0,1,1.18,2.81v5.74c0,.24,0,.47,0,.68s0,.44.07.65l1.17.07v.95Zm-4.25-.92a4.66,4.66,0,0,0,2.47-.64A3.77,3.77,0,0,0,137.51,26V23.64h-2.6a4.92,4.92,0,0,0-2.81.73,2.18,2.18,0,0,0-1,1.84,1.93,1.93,0,0,0,.66,1.52A2.62,2.62,0,0,0,133.5,28.3Z"/><path class="cls-1" d="M141.94,23.48A7.54,7.54,0,0,1,143.13,19a3.83,3.83,0,0,1,3.31-1.68,4,4,0,0,1,3.65,2.09l.15-1.87h1.09V29.07a5,5,0,0,1-1.22,3.56,4.4,4.4,0,0,1-3.39,1.3,8.33,8.33,0,0,1-1.8-.2,7.11,7.11,0,0,1-1.67-.56l.35-1.09a7.55,7.55,0,0,0,1.47.52,7.12,7.12,0,0,0,1.62.18,3.14,3.14,0,0,0,2.51-1,4.05,4.05,0,0,0,.84-2.73V27.59a4.12,4.12,0,0,1-1.5,1.38,4.49,4.49,0,0,1-2.13.48,3.9,3.9,0,0,1-3.29-1.57,6.72,6.72,0,0,1-1.18-4.17Zm1.29.23a5.89,5.89,0,0,0,.86,3.36,2.88,2.88,0,0,0,2.56,1.26,3.59,3.59,0,0,0,2.1-.58A3.65,3.65,0,0,0,150,26.18V20.76a4.15,4.15,0,0,0-1.24-1.66,3.32,3.32,0,0,0-2.13-.64,2.83,2.83,0,0,0-2.57,1.4,6.76,6.76,0,0,0-.87,3.62Z"/><path class="cls-1" d="M165.46,18.51l-1.18.1-4.72,12.48a6.57,6.57,0,0,1-1.17,2,2.64,2.64,0,0,1-2.12.83,4,4,0,0,1-.55,0,3,3,0,0,1-.47-.11l.15-1.07.41,0,.41,0a1.68,1.68,0,0,0,1.35-.59,5.63,5.63,0,0,0,.87-1.55l.61-1.56L154.9,18.61l-1.18-.1v-1h4v1l-1.39.11,2.85,7.44.41,1.4h.06l3.19-8.84-1.42-.11v-1h4Z"/><path class="cls-1" d="M174.83,29.22c-.09-.39-.15-.74-.19-1a8.49,8.49,0,0,1,0-.88,5.12,5.12,0,0,1-1.73,1.52,4.78,4.78,0,0,1-2.42.61,3.73,3.73,0,0,1-2.66-.89,3.12,3.12,0,0,1-.94-2.39,3,3,0,0,1,1.4-2.57,6.59,6.59,0,0,1,3.77-1h2.58V21.11a2.5,2.5,0,0,0-.8-2,3.27,3.27,0,0,0-2.25-.72,5.59,5.59,0,0,0-1.78.27,4,4,0,0,0-1.34.72L168.31,21h-1.07V18.74a6.73,6.73,0,0,1,1.94-1,7.28,7.28,0,0,1,2.4-.39,4.68,4.68,0,0,1,3.11,1,3.46,3.46,0,0,1,1.17,2.81v5.74c0,.24,0,.47,0,.68a4.46,4.46,0,0,0,.07.65l1.16.07v.95Zm-4.25-.92a4.69,4.69,0,0,0,2.47-.64A3.82,3.82,0,0,0,174.59,26V23.64H172a4.9,4.9,0,0,0-2.81.73,2.18,2.18,0,0,0-1.05,1.84,2,2,0,0,0,.65,1.52A2.64,2.64,0,0,0,170.58,28.3Z"/><path class="cls-1" d="M181.75,17.55l.16,1.94v.14a4.18,4.18,0,0,1,1.36-1.69,3.46,3.46,0,0,1,2-.61,3.58,3.58,0,0,1,.48,0l.38.08L186,18.66l-1-.06a3,3,0,0,0-2,.68,3.84,3.84,0,0,0-1.12,1.88v7l1.76.14v.95h-4.8v-.95l1.76-.14V18.65l-1.76-.14v-1h2.88Z"/><path class="cls-1" d="M192.93,28.27l1.76-.14V14.62l-1.76-.14v-1h4.8v1l-1.76.14v6.12h2.15l5.28-6.18-1.51-.08v-1h4.39v1l-1.38.12-5.62,6.64,6.06,6.9,1.42.13v.95h-4.48v-.95l1.49-.08-5.64-6.36H196v6.3l1.76.14v.95h-4.8Z"/><path class="cls-1" d="M216.55,29.22a8.89,8.89,0,0,1-.18-1,6.4,6.4,0,0,1-.06-.88,5.09,5.09,0,0,1-1.72,1.52,4.82,4.82,0,0,1-2.43.61,3.71,3.71,0,0,1-2.65-.89,3.09,3.09,0,0,1-.94-2.39A3,3,0,0,1,210,23.6a6.65,6.65,0,0,1,3.78-1h2.57V21.11a2.46,2.46,0,0,0-.8-2,3.24,3.24,0,0,0-2.25-.72,5.48,5.48,0,0,0-1.77.27,3.94,3.94,0,0,0-1.35.72L210,21H209V18.74a6.6,6.6,0,0,1,1.94-1,7.28,7.28,0,0,1,2.4-.39,4.65,4.65,0,0,1,3.1,1,3.43,3.43,0,0,1,1.18,2.81v5.74c0,.24,0,.47,0,.68a6.47,6.47,0,0,0,.07.65l1.17.07v.95Zm-4.25-.92a4.66,4.66,0,0,0,2.47-.64A3.77,3.77,0,0,0,216.31,26V23.64h-2.6a4.92,4.92,0,0,0-2.81.73,2.18,2.18,0,0,0-1.05,1.84,1.93,1.93,0,0,0,.66,1.52A2.62,2.62,0,0,0,212.3,28.3Z"/><path class="cls-1" d="M223.65,14.56v3h2.57v1.06h-2.57v7.6a2.51,2.51,0,0,0,.41,1.62,1.37,1.37,0,0,0,1.11.48c.21,0,.41,0,.61,0l.68-.09.2,1a3.6,3.6,0,0,1-.79.21,5.84,5.84,0,0,1-.93.08,2.41,2.41,0,0,1-1.91-.78,3.65,3.65,0,0,1-.69-2.46v-7.6h-2V17.55h2v-3Z"/><path class="cls-1" d="M228.37,23.21A6.24,6.24,0,0,1,229.79,19a5.08,5.08,0,0,1,7.49,0,6.24,6.24,0,0,1,1.42,4.23v.36a6.26,6.26,0,0,1-1.41,4.23,5.09,5.09,0,0,1-7.5,0,6.22,6.22,0,0,1-1.42-4.23Zm1.3.36a5.59,5.59,0,0,0,1,3.41,3.62,3.62,0,0,0,5.69,0,5.59,5.59,0,0,0,1-3.41v-.36a5.48,5.48,0,0,0-1-3.38,3.58,3.58,0,0,0-5.68,0,5.54,5.54,0,0,0-1,3.38Z"/><path class="cls-1" d="M240.33,13.35v-1h3V28.13l1.76.14v.95h-4.8v-.95l1.75-.14V13.49Z"/><path class="cls-1" d="M247.08,28.27l1.76-.14V18.65l-1.76-.14v-1h3V28.13l1.76.14v.95h-4.8Zm3-14.06h-1.28V12.39h1.28Z"/><path class="cls-1" d="M253.67,13.35v-1h3v10h1.37l3.55-3.79,0-.06-1.07-.07v-1h4.11v1l-1.36.13-4,4.24,4.54,5.27,1.3.12v.95H261v-.95l1.23-.07-4.06-4.66h-1.5v4.59l1.76.14v.95h-4.8v-.95l1.76-.14V13.49Z"/><path class="cls-1" d="M275.5,27.3a4,4,0,0,1-1.5,1.59,4.42,4.42,0,0,1-2.25.56,3.58,3.58,0,0,1-2.89-1.25,6,6,0,0,1-1-3.89V18.65l-1.44-.14v-1h2.73v6.78a5.08,5.08,0,0,0,.72,3.07,2.49,2.49,0,0,0,2.07.93,3.84,3.84,0,0,0,2.34-.65,3.49,3.49,0,0,0,1.22-1.79V18.65l-1.66-.14v-1h2.95V28.13l1.57.14v.95h-2.7Z"/><path class="cls-1" d="M288.68,21.15h-1.05l-.15-1.65a3.39,3.39,0,0,0-1.23-.79,4.92,4.92,0,0,0-1.7-.28,3.21,3.21,0,0,0-2.12.61,1.85,1.85,0,0,0-.7,1.43,1.68,1.68,0,0,0,.61,1.34,5.93,5.93,0,0,0,2.43.93A7.9,7.9,0,0,1,287.89,24a2.6,2.6,0,0,1,1,2.18,2.82,2.82,0,0,1-1.18,2.36,5,5,0,0,1-3.12.9,7.31,7.31,0,0,1-2.36-.36,5.57,5.57,0,0,1-1.84-1V25.72h1.05l.18,1.66a3.13,3.13,0,0,0,1.31.75,6.05,6.05,0,0,0,1.66.23,3.58,3.58,0,0,0,2.21-.62,1.81,1.81,0,0,0,.81-1.49,1.89,1.89,0,0,0-.68-1.43,5.49,5.49,0,0,0-2.43-1,8.12,8.12,0,0,1-3.09-1.21,2.44,2.44,0,0,1-1-2.09,2.82,2.82,0,0,1,1.13-2.26,4.59,4.59,0,0,1,3-.93,6.77,6.77,0,0,1,2.35.4,4.65,4.65,0,0,1,1.73,1.06Z"/><path class="cls-1" d="M116,39.75A5.43,5.43,0,0,1,119.79,41a4.3,4.3,0,0,1,1.35,3.32,4.36,4.36,0,0,1-1.35,3.35A5.47,5.47,0,0,1,116,48.93h-3.58v5.44l1.76.14v1h-4.8v-1l1.76-.14V40.85l-1.76-.14v-1H116Zm-3.58,8.08H116a3.92,3.92,0,0,0,2.92-1,3.38,3.38,0,0,0,1-2.48,3.47,3.47,0,0,0-1-2.51,3.91,3.91,0,0,0-2.93-1h-3.58Z"/><path class="cls-1" d="M132,53.54a4,4,0,0,1-1.51,1.58,4.26,4.26,0,0,1-2.24.56,3.53,3.53,0,0,1-2.89-1.25,6,6,0,0,1-1-3.88V44.88l-1.45-.14v-1h2.73v6.79a5.06,5.06,0,0,0,.73,3.06,2.47,2.47,0,0,0,2.07.93,3.83,3.83,0,0,0,2.33-.65,3.41,3.41,0,0,0,1.23-1.79V44.88l-1.67-.14v-1h3V54.37l1.56.14v1h-2.69Zm-5.25-12.17h-1.88v-1.7h1.88Zm5,0H129.9v-1.7h1.86Z"/><path class="cls-1" d="M145.14,47.39h-1.06l-.15-1.65a3.26,3.26,0,0,0-1.22-.79,4.7,4.7,0,0,0-1.7-.28,3.16,3.16,0,0,0-2.12.61,1.83,1.83,0,0,0-.71,1.43,1.69,1.69,0,0,0,.61,1.33,5.77,5.77,0,0,0,2.44.93,8.06,8.06,0,0,1,3.11,1.27,2.62,2.62,0,0,1,1,2.18,2.85,2.85,0,0,1-1.18,2.36,5,5,0,0,1-3.13.9,7.29,7.29,0,0,1-2.35-.36,5.57,5.57,0,0,1-1.84-1V52h1l.19,1.66a2.88,2.88,0,0,0,1.31.75,5.67,5.67,0,0,0,1.65.23,3.59,3.59,0,0,0,2.22-.61,1.84,1.84,0,0,0,.8-1.49,1.89,1.89,0,0,0-.67-1.44,5.49,5.49,0,0,0-2.43-1,8.13,8.13,0,0,1-3.09-1.2,2.45,2.45,0,0,1-1-2.1A2.84,2.84,0,0,1,138,44.49a4.62,4.62,0,0,1,3-.92,6.78,6.78,0,0,1,2.35.39A5,5,0,0,1,145.09,45Z"/><path class="cls-1" d="M147.38,44.74v-1h2.84l.16,1.82a4.2,4.2,0,0,1,1.52-1.5,4.29,4.29,0,0,1,2.16-.53,3.81,3.81,0,0,1,3.29,1.68,7.59,7.59,0,0,1,1.19,4.47v.22a6.74,6.74,0,0,1-1.19,4.18,3.88,3.88,0,0,1-3.27,1.56,4.6,4.6,0,0,1-2.15-.47,3.84,3.84,0,0,1-1.5-1.33v5l1.75.14v1h-4.8V59l1.76-.14v-14Zm9.86,5a6.73,6.73,0,0,0-.88-3.63,2.88,2.88,0,0,0-2.59-1.4,3.42,3.42,0,0,0-2.12.62,3.84,3.84,0,0,0-1.22,1.61v5.61A3.49,3.49,0,0,0,151.7,54a3.72,3.72,0,0,0,2.09.55,2.91,2.91,0,0,0,2.57-1.27,5.81,5.81,0,0,0,.88-3.38Z"/><path class="cls-1" d="M160.64,49.45a6.24,6.24,0,0,1,1.42-4.23,5.08,5.08,0,0,1,7.49,0A6.29,6.29,0,0,1,171,49.45v.35A6.29,6.29,0,0,1,169.56,54a5.11,5.11,0,0,1-7.5,0,6.25,6.25,0,0,1-1.42-4.24Zm1.3.35a5.56,5.56,0,0,0,1,3.41,3.62,3.62,0,0,0,5.69,0,5.56,5.56,0,0,0,1-3.41v-.35a5.53,5.53,0,0,0-1-3.39,3.6,3.6,0,0,0-5.68,0,5.59,5.59,0,0,0-1,3.39Zm2.23-8.55h-1.88V39.56h1.88Zm5.06,0h-1.87V39.56h1.87Z"/><path class="cls-1" d="M172.48,39.59v-1h3v10h1.37l3.55-3.79,0,0-1.06-.08v-1h4.11v1l-1.36.13-4,4.24,4.54,5.28,1.29.12v1h-4.1v-1l1.23-.08-4-4.66h-1.5v4.6l1.76.14v1h-4.8v-1l1.75-.14V39.73Z"/><path class="cls-1" d="M185.65,54.51l1.75-.14V44.88l-1.75-.14v-1h3V54.37l1.76.14v1h-4.8Zm3-14.07H187.4V38.63h1.29Z"/><path class="cls-1" d="M197.71,54.51l1.75-.14V40.85l-1.75-.14v-1h4.8v1l-1.76.14V47h2.14l5.29-6.18-1.51-.09v-1h4.39v1l-1.38.13-5.62,6.63,6.06,6.91,1.42.13v1h-4.48v-1l1.49-.09-5.64-6.35h-2.16v6.3l1.76.14v1h-4.8Z"/><path class="cls-1" d="M213,49.45a6.28,6.28,0,0,1,1.41-4.23,5.09,5.09,0,0,1,7.5,0,6.28,6.28,0,0,1,1.41,4.23v.35A6.34,6.34,0,0,1,221.9,54a4.7,4.7,0,0,1-3.74,1.64A4.75,4.75,0,0,1,214.39,54,6.29,6.29,0,0,1,213,49.8Zm1.3.35a5.56,5.56,0,0,0,1,3.41,3.36,3.36,0,0,0,2.86,1.38A3.31,3.31,0,0,0,221,53.21a5.51,5.51,0,0,0,1-3.41v-.35a5.53,5.53,0,0,0-1-3.39,3.6,3.6,0,0,0-5.68,0,5.59,5.59,0,0,0-1,3.39Z"/><path class="cls-1" d="M225.17,54.51l1.76-.14V44.88l-1.76-.14v-1h2.9l.12,2A4.05,4.05,0,0,1,232,43.57a3.62,3.62,0,0,1,2.89,1.16,5.49,5.49,0,0,1,1,3.62v6l1.76.14v1H232.8v-1l1.75-.14v-6a4.24,4.24,0,0,0-.74-2.84,2.76,2.76,0,0,0-2.14-.83,3.32,3.32,0,0,0-2.21.72,4.08,4.08,0,0,0-1.24,1.9v7.06l1.76.14v1h-4.81Z"/><path class="cls-1" d="M239.45,44.84V43.78h1.93v-1.7a3.87,3.87,0,0,1,.89-2.72,3.19,3.19,0,0,1,2.47-1,5.78,5.78,0,0,1,.71.05,7,7,0,0,1,.74.16L246,39.67l-.53-.1a5.57,5.57,0,0,0-.63,0,2,2,0,0,0-1.63.67,2.89,2.89,0,0,0-.56,1.88v1.7h2.78v1.06h-2.78v9.53l1.76.14v1h-4.82v-1l1.76-.14V44.84Z"/><path class="cls-1" d="M252.34,55.68a4.66,4.66,0,0,1-3.64-1.61A5.88,5.88,0,0,1,247.25,50v-.59a6.08,6.08,0,0,1,1.44-4.15,4.46,4.46,0,0,1,3.48-1.65,4.32,4.32,0,0,1,3.38,1.36,5.17,5.17,0,0,1,1.23,3.62v1.1h-8.25V50a5.16,5.16,0,0,0,1.06,3.3,3.33,3.33,0,0,0,2.75,1.33,5.68,5.68,0,0,0,2-.33,4,4,0,0,0,1.46-1l.55.88a4.68,4.68,0,0,1-1.66,1.1A6.42,6.42,0,0,1,252.34,55.68Zm-.17-11a3.08,3.08,0,0,0-2.4,1.09,4.73,4.73,0,0,0-1.14,2.75l0,.05h6.84v-.32a3.77,3.77,0,0,0-.89-2.55A3.08,3.08,0,0,0,252.17,44.67Z"/><path class="cls-1" d="M261.88,43.78l.16,1.95v.14a4.1,4.1,0,0,1,1.35-1.69,3.42,3.42,0,0,1,2-.61,2.59,2.59,0,0,1,.48,0,2.49,2.49,0,0,1,.38.08l-.17,1.2-1-.06a2.94,2.94,0,0,0-2,.68A3.8,3.8,0,0,0,262,47.4v7l1.76.14v1H259v-1l1.76-.14V44.88L259,44.74v-1h2.88Z"/><path class="cls-1" d="M272.9,55.68a4.66,4.66,0,0,1-3.64-1.61A5.88,5.88,0,0,1,267.81,50v-.59a6.08,6.08,0,0,1,1.44-4.15,4.46,4.46,0,0,1,3.48-1.65,4.32,4.32,0,0,1,3.38,1.36,5.17,5.17,0,0,1,1.23,3.62v1.1H269.1V50a5.15,5.15,0,0,0,1,3.3,3.33,3.33,0,0,0,2.75,1.33,5.68,5.68,0,0,0,2.05-.33,4,4,0,0,0,1.46-1l.55.88a4.68,4.68,0,0,1-1.66,1.1A6.42,6.42,0,0,1,272.9,55.68Zm-.17-11a3.08,3.08,0,0,0-2.4,1.09,4.73,4.73,0,0,0-1.14,2.75l0,.05h6.84v-.32a3.77,3.77,0,0,0-.89-2.55A3.08,3.08,0,0,0,272.73,44.67Z"/><path class="cls-1" d="M279.41,54.51l1.76-.14V44.88l-1.76-.14v-1h2.9l.12,2a4,4,0,0,1,3.77-2.25,3.59,3.59,0,0,1,2.89,1.16,5.44,5.44,0,0,1,1,3.62v6l1.76.14v1H287v-1l1.76-.14v-6a4.24,4.24,0,0,0-.75-2.84,2.73,2.73,0,0,0-2.13-.83,3.32,3.32,0,0,0-2.21.72,3.93,3.93,0,0,0-1.24,1.9v7.06l1.76.14v1h-4.81Z"/><path class="cls-1" d="M298.75,54.59a3.66,3.66,0,0,0,2.26-.73,2.4,2.4,0,0,0,1-2h1.14l0,.06a3.18,3.18,0,0,1-1.29,2.71,4.77,4.77,0,0,1-3.12,1.09,4.44,4.44,0,0,1-3.68-1.63,6.52,6.52,0,0,1-1.3-4.2v-.46a6.5,6.5,0,0,1,1.3-4.18,4.43,4.43,0,0,1,3.67-1.64,6.06,6.06,0,0,1,2.47.5A4.81,4.81,0,0,1,303,45.46l.06,2.54H302l-.2-2.07a3.66,3.66,0,0,0-1.29-.92,4.24,4.24,0,0,0-1.75-.34A3.13,3.13,0,0,0,296,46a6,6,0,0,0-.9,3.38v.46a6,6,0,0,0,.89,3.4A3.12,3.12,0,0,0,298.75,54.59Z"/><path class="cls-1" d="M305.48,54.51l1.76-.14V44.88l-1.76-.14v-1h3V54.37l1.76.14v1h-4.8Zm3-14.07h-1.28V38.63h1.28Z"/><path class="cls-1" d="M320.51,55.46c-.09-.4-.15-.74-.19-1a8.46,8.46,0,0,1-.05-.87,5.12,5.12,0,0,1-1.73,1.52,4.88,4.88,0,0,1-2.42.6,3.73,3.73,0,0,1-2.66-.88,3.16,3.16,0,0,1-.94-2.4,2.94,2.94,0,0,1,1.4-2.56,6.52,6.52,0,0,1,3.77-1h2.58V47.34a2.5,2.5,0,0,0-.8-2,3.32,3.32,0,0,0-2.25-.71,5.89,5.89,0,0,0-1.78.26,4.17,4.17,0,0,0-1.34.72L314,47.21h-1.07V45a6.71,6.71,0,0,1,1.94-1,7.28,7.28,0,0,1,2.4-.39,4.73,4.73,0,0,1,3.11,1,3.46,3.46,0,0,1,1.17,2.81V53.1c0,.24,0,.47,0,.69a4.48,4.48,0,0,0,.07.64l1.16.08v1Zm-4.25-.92a4.72,4.72,0,0,0,2.47-.65,3.85,3.85,0,0,0,1.54-1.67V49.88h-2.6a4.82,4.82,0,0,0-2.81.73,2.17,2.17,0,0,0-1.05,1.84,1.9,1.9,0,0,0,.65,1.51A2.6,2.6,0,0,0,316.26,54.54Z"/><path class="cls-1" d="M109.18,67.88V66h6.5v1.9l-1.68.33v4.53h6.41V68.21l-1.69-.33V66h6.51v1.9l-1.68.33V79.48l1.68.32v1.89h-6.51V79.8l1.69-.32V75.16H114v4.32l1.68.32v1.89h-6.5V79.8l1.67-.32V68.21Z"/><path class="cls-1" d="M126.43,79.8l1.52-.32V72.24l-1.69-.32V70h4.84v9.46l1.51.32v1.89h-6.18Zm4.67-12.58H128V64.86h3.15Z"/><path class="cls-1" d="M138.29,67.16V70h2.05v2.21h-2.05v5.94a1.34,1.34,0,0,0,.28,1,1,1,0,0,0,.76.29,4.79,4.79,0,0,0,.56,0l.55-.09.27,2.27a6.62,6.62,0,0,1-1.05.24,6.52,6.52,0,0,1-1.12.09A3.35,3.35,0,0,1,136,81a3.91,3.91,0,0,1-.88-2.84v-6h-1.71V70h1.71V67.16Z"/><path class="cls-1" d="M141.56,75.75A6.28,6.28,0,0,1,143,71.47a5.75,5.75,0,0,1,8.09,0,6.24,6.24,0,0,1,1.46,4.29V76a6.2,6.2,0,0,1-1.46,4.29,5.76,5.76,0,0,1-8.09,0A6.25,6.25,0,0,1,141.56,76Zm3.15.22a5.09,5.09,0,0,0,.56,2.56,2.16,2.16,0,0,0,3.6,0,5,5,0,0,0,.56-2.56v-.22a5,5,0,0,0-.57-2.54,1.94,1.94,0,0,0-1.8-1,1.91,1.91,0,0,0-1.79,1,5.14,5.14,0,0,0-.56,2.54Z"/><path class="cls-1" d="M153.39,66.76v-1.9h4.82v9.75h.71l1.81-2.55-1-.14V70h5.74v1.9l-1.38.31L162,75.12l2.94,4.43,1.2.25v1.89h-5.39V79.8l.64-.11-1.79-2.89h-1.35v2.68l1.36.32v1.89h-6V79.8l1.53-.32V67.08Z"/><path class="cls-1" d="M171.85,67.16V70h2.05v2.21h-2.05v5.94a1.34,1.34,0,0,0,.28,1,1,1,0,0,0,.76.29,4.79,4.79,0,0,0,.56,0l.55-.09.27,2.27a7.16,7.16,0,0,1-1.05.24,6.6,6.6,0,0,1-1.12.09,3.35,3.35,0,0,1-2.51-.9,3.91,3.91,0,0,1-.88-2.84v-6H167V70h1.71V67.16Z"/><path class="cls-1" d="M182.87,81.69a5.31,5.31,0,0,1-.22-.6,3.3,3.3,0,0,1-.15-.62,4.47,4.47,0,0,1-1.37,1,4.15,4.15,0,0,1-1.84.4,3.81,3.81,0,0,1-2.72-.94,3.28,3.28,0,0,1-1-2.54,2.88,2.88,0,0,1,1.32-2.53,6.82,6.82,0,0,1,3.86-.9h1.61V73.87a1.75,1.75,0,0,0-.49-1.31,2,2,0,0,0-1.43-.46,3.5,3.5,0,0,0-1,.12,2.74,2.74,0,0,0-.68.3l-.21,1.25h-2.37V71.18a8.71,8.71,0,0,1,2-1,7.28,7.28,0,0,1,2.43-.4,5.57,5.57,0,0,1,3.52,1.06,3.64,3.64,0,0,1,1.36,3v5.33c0,.16,0,.31,0,.45l1,.13v1.89Zm-2.73-2.1a2.8,2.8,0,0,0,1.3-.31,2.58,2.58,0,0,0,.91-.77V76.73h-1.61a2.15,2.15,0,0,0-1.52.47,1.45,1.45,0,0,0-.52,1.12,1.18,1.18,0,0,0,.38.93A1.54,1.54,0,0,0,180.14,79.59Z"/><path class="cls-1" d="M191.36,67.16V70h2v2.21h-2v5.94a1.39,1.39,0,0,0,.28,1,1,1,0,0,0,.76.29,5.06,5.06,0,0,0,.57,0l.54-.09.27,2.27a6.62,6.62,0,0,1-1.05.24,6.52,6.52,0,0,1-1.12.09,3.37,3.37,0,0,1-2.51-.9,4,4,0,0,1-.88-2.84v-6h-1.71V70h1.71V67.16Z"/><path class="cls-1" d="M202.39,81.69a5.33,5.33,0,0,1-.23-.6,6.23,6.23,0,0,1-.15-.62,4.43,4.43,0,0,1-1.36,1,4.18,4.18,0,0,1-1.84.4,3.84,3.84,0,0,1-2.73-.94,3.28,3.28,0,0,1-1-2.54,2.88,2.88,0,0,1,1.32-2.53,6.84,6.84,0,0,1,3.86-.9h1.61V73.87a1.71,1.71,0,0,0-.49-1.31,2,2,0,0,0-1.43-.46,3.5,3.5,0,0,0-1,.12,2.92,2.92,0,0,0-.68.3l-.21,1.25h-2.37V71.18a9.14,9.14,0,0,1,2-1,7.37,7.37,0,0,1,2.43-.4,5.62,5.62,0,0,1,3.53,1.06,3.63,3.63,0,0,1,1.35,3v4.82c0,.18,0,.35,0,.51a3.19,3.19,0,0,0,0,.45l1,.13v1.89Zm-2.73-2.1a2.79,2.79,0,0,0,1.29-.31,2.58,2.58,0,0,0,.91-.77V76.73h-1.61a2.16,2.16,0,0,0-1.52.47,1.48,1.48,0,0,0-.52,1.12,1.15,1.15,0,0,0,.39.93A1.52,1.52,0,0,0,199.66,79.59Zm1.06-14.1h3.33l0,.06-3,2.81h-2.52Z"/><path class="cls-1" d="M216.62,74H214.5l-.33-1.46a3,3,0,0,0-.82-.43,3.35,3.35,0,0,0-1.08-.17,2.11,2.11,0,0,0-1.32.37,1.14,1.14,0,0,0-.48.94,1,1,0,0,0,.46.87,4.71,4.71,0,0,0,1.86.62A7.7,7.7,0,0,1,216,76a2.8,2.8,0,0,1,1.05,2.31,3.05,3.05,0,0,1-1.36,2.57,5.89,5.89,0,0,1-3.56,1,7.29,7.29,0,0,1-2.48-.4,6.07,6.07,0,0,1-2-1.13l0-2.62h2.2l.43,1.52a1.84,1.84,0,0,0,.77.36,4.74,4.74,0,0,0,1,.11,2.48,2.48,0,0,0,1.46-.35,1.07,1.07,0,0,0,.5-.94,1.08,1.08,0,0,0-.5-.89,5.14,5.14,0,0,0-1.87-.67,7.48,7.48,0,0,1-3.11-1.25,2.7,2.7,0,0,1-1-2.24,3.25,3.25,0,0,1,1.21-2.53,5,5,0,0,1,3.44-1.07,9,9,0,0,1,2.57.37,5.52,5.52,0,0,1,1.9.94Z"/><path class="cls-1" d="M218.36,79.8l1.52-.32V72.24l-1.68-.32V70H223v9.46l1.51.32v1.89h-6.18ZM223,67.22h-3.15V64.86H223Z"/><path class="cls-1" d="M237.9,66a7.46,7.46,0,0,1,4.32,1.08,3.67,3.67,0,0,1,1.56,3.23,3.37,3.37,0,0,1-2.26,3.23,3.36,3.36,0,0,1,2.12,1.3,3.87,3.87,0,0,1,.71,2.3,4.06,4.06,0,0,1-1.49,3.41,6.75,6.75,0,0,1-4.22,1.16h-7.72V79.8l1.67-.32V68.21l-1.67-.33V66h7Zm-2.16,6.58H238a3.18,3.18,0,0,0,1.94-.51,1.8,1.8,0,0,0,.68-1.51,1.87,1.87,0,0,0-.69-1.61,3.3,3.3,0,0,0-2-.52h-2.16Zm0,2.18v4.53h2.9a2.94,2.94,0,0,0,1.91-.54,2,2,0,0,0,.66-1.61,2.56,2.56,0,0,0-.56-1.77,2.31,2.31,0,0,0-1.77-.61Z"/><path class="cls-1" d="M245.5,79.8l1.52-.32V72.24l-1.68-.32V70h4.83v9.46l1.51.32v1.89H245.5Zm4.67-12.58H247V64.86h3.15Z"/><path class="cls-1" d="M256.89,79.27h3.26l.13-1.55h2.41v4H253V79.83l5.56-7.37h-2.86L255.57,74h-2.42V70h9.34v1.8Z"/><path class="cls-1" d="M264.09,75.75a6.28,6.28,0,0,1,1.46-4.28,5.75,5.75,0,0,1,8.09,0,6.24,6.24,0,0,1,1.46,4.29V76a6.2,6.2,0,0,1-1.46,4.29,5.76,5.76,0,0,1-8.09,0A6.25,6.25,0,0,1,264.09,76Zm3.15.22a5.09,5.09,0,0,0,.56,2.56,2.16,2.16,0,0,0,3.6,0A5,5,0,0,0,272,76v-.22a5,5,0,0,0-.57-2.54,1.94,1.94,0,0,0-1.8-1,1.91,1.91,0,0,0-1.79,1,5.14,5.14,0,0,0-.56,2.54Z"/><path class="cls-1" d="M281.12,67.16V70h2.05v2.21h-2.05v5.94a1.39,1.39,0,0,0,.28,1,1,1,0,0,0,.76.29,4.79,4.79,0,0,0,.56,0l.55-.09.27,2.27a6.62,6.62,0,0,1-1.05.24,6.52,6.52,0,0,1-1.12.09,3.37,3.37,0,0,1-2.51-.9,4,4,0,0,1-.88-2.84v-6h-1.71V70H278V67.16Z"/><path class="cls-1" d="M289.36,67.16V70h2.05v2.21h-2.05v5.94a1.39,1.39,0,0,0,.28,1,1,1,0,0,0,.76.29,5,5,0,0,0,.57,0l.54-.09.27,2.27a6.62,6.62,0,0,1-1,.24,6.43,6.43,0,0,1-1.12.09,3.37,3.37,0,0,1-2.51-.9,4,4,0,0,1-.88-2.84v-6h-1.71V70h1.71V67.16Z"/><path class="cls-1" d="M302.48,74h-2.11L300,72.57a2.8,2.8,0,0,0-.81-.43,3.41,3.41,0,0,0-1.09-.17,2.08,2.08,0,0,0-1.31.37,1.13,1.13,0,0,0-.49.94,1,1,0,0,0,.47.87,4.64,4.64,0,0,0,1.85.62A7.69,7.69,0,0,1,301.87,76a2.82,2.82,0,0,1,1,2.31,3.07,3.07,0,0,1-1.35,2.57,5.9,5.9,0,0,1-3.57,1,7.23,7.23,0,0,1-2.47-.4,6.07,6.07,0,0,1-2-1.13l0-2.62h2.21l.43,1.52a1.8,1.8,0,0,0,.76.36,4.83,4.83,0,0,0,1,.11,2.5,2.5,0,0,0,1.46-.35,1.08,1.08,0,0,0,0-1.83,5.15,5.15,0,0,0-1.86-.67,7.53,7.53,0,0,1-3.12-1.25,2.7,2.7,0,0,1-1.05-2.24,3.28,3.28,0,0,1,1.21-2.53A5,5,0,0,1,298,69.82a8.92,8.92,0,0,1,2.57.37,5.58,5.58,0,0,1,1.91.94Z"/><path class="cls-1" d="M311.76,81.69a5.33,5.33,0,0,1-.23-.6,6.23,6.23,0,0,1-.15-.62,4.43,4.43,0,0,1-1.36,1,4.18,4.18,0,0,1-1.84.4,3.84,3.84,0,0,1-2.73-.94,3.28,3.28,0,0,1-1-2.54,2.88,2.88,0,0,1,1.32-2.53,6.84,6.84,0,0,1,3.86-.9h1.61V73.87a1.71,1.71,0,0,0-.49-1.31,2,2,0,0,0-1.43-.46,3.5,3.5,0,0,0-1,.12,2.92,2.92,0,0,0-.68.3l-.21,1.25h-2.37V71.18a9.14,9.14,0,0,1,2-1,7.37,7.37,0,0,1,2.43-.4A5.62,5.62,0,0,1,313,70.86a3.63,3.63,0,0,1,1.35,3v4.82c0,.18,0,.35,0,.51a3.19,3.19,0,0,0,0,.45l1,.13v1.89ZM309,79.59a2.79,2.79,0,0,0,1.29-.31,2.58,2.58,0,0,0,.91-.77V76.73h-1.61a2.16,2.16,0,0,0-1.52.47,1.48,1.48,0,0,0-.52,1.12,1.15,1.15,0,0,0,.39.93A1.52,1.52,0,0,0,309,79.59Zm1.06-14.1h3.33l0,.06-3,2.81h-2.52Z"/><path class="cls-1" d="M316.66,76a7.53,7.53,0,0,1,1.2-4.45,3.89,3.89,0,0,1,3.37-1.7,3.33,3.33,0,0,1,1.72.44,3.87,3.87,0,0,1,1.28,1.24l.22-1.46h2.74V81.34A4.84,4.84,0,0,1,325.74,85a5.56,5.56,0,0,1-4,1.37,8,8,0,0,1-1.88-.24,8.62,8.62,0,0,1-1.83-.66l.58-2.21a11.18,11.18,0,0,0,1.51.51,6.88,6.88,0,0,0,1.6.19,2.1,2.1,0,0,0,1.72-.7,3,3,0,0,0,.57-2v-.76a3.43,3.43,0,0,1-1.22,1,3.55,3.55,0,0,1-1.6.35,4,4,0,0,1-3.35-1.58,6.71,6.71,0,0,1-1.2-4.16Zm3.15.23a4.82,4.82,0,0,0,.51,2.41,1.81,1.81,0,0,0,1.69.88,2.53,2.53,0,0,0,1.22-.27,2,2,0,0,0,.8-.77V73.36a2.25,2.25,0,0,0-.8-.82,2.37,2.37,0,0,0-1.2-.29,1.78,1.78,0,0,0-1.69,1,5.71,5.71,0,0,0-.53,2.67Z"/><path class="cls-1" d="M336.51,81.69a5.31,5.31,0,0,1-.22-.6,3.3,3.3,0,0,1-.15-.62,4.47,4.47,0,0,1-1.37,1,4.15,4.15,0,0,1-1.84.4,3.81,3.81,0,0,1-2.72-.94,3.28,3.28,0,0,1-1-2.54,2.88,2.88,0,0,1,1.32-2.53,6.82,6.82,0,0,1,3.86-.9H336V73.87a1.75,1.75,0,0,0-.49-1.31,2,2,0,0,0-1.43-.46,3.5,3.5,0,0,0-1,.12,2.92,2.92,0,0,0-.68.3l-.21,1.25h-2.37V71.18a8.71,8.71,0,0,1,2-1,7.28,7.28,0,0,1,2.43-.4,5.57,5.57,0,0,1,3.52,1.06,3.64,3.64,0,0,1,1.36,3v5.33c0,.16,0,.31,0,.45l1,.13v1.89Zm-2.72-2.1a2.79,2.79,0,0,0,1.29-.31,2.58,2.58,0,0,0,.91-.77V76.73h-1.61a2.15,2.15,0,0,0-1.52.47,1.45,1.45,0,0,0-.52,1.12,1.18,1.18,0,0,0,.38.93A1.55,1.55,0,0,0,333.79,79.59Z"/><path class="cls-1" d="M68,51.69a1.39,1.39,0,0,0-1.25-.14l-.26.07-.33.09c-3.83.83-5.73.23-9.46-1.79-4.42-2.39-8.56-2.14-12.29.74A3.36,3.36,0,0,1,44,51h0a3.42,3.42,0,0,1-.44-.32c-3.74-2.88-7.87-3.13-12.3-.74l-.46.25V25.24H52.51a1.09,1.09,0,0,0,1.09-1.09v-.23a1.09,1.09,0,0,0-1.09-1.1H30.78V1.09A1.09,1.09,0,0,0,29.69,0h-.24a1.09,1.09,0,0,0-1.09,1.09V22.82H6.63a1.09,1.09,0,0,0-1.09,1.1v.23a1.09,1.09,0,0,0,1.09,1.09H28.36V51.32a10.07,10.07,0,0,1-6.58.39l-.32-.09-.27-.07a1.4,1.4,0,0,0-1.25.14,1.42,1.42,0,0,0-.46,1.16c0,1.12-1.93,27.83-1.93,27.83,0,1.17.23,1.47,1.37,1.77a16.72,16.72,0,0,0,4.21.55,19.53,19.53,0,0,0,7.5-1.61c.57-.24,1.12-.52,1.65-.79s1-.51,1.52-.73a7.89,7.89,0,0,1,8.89,1.77,1.85,1.85,0,0,0,1.28.71h0a1.87,1.87,0,0,0,1.29-.71,7.88,7.88,0,0,1,8.89-1.77c.51.22,1,.48,1.52.73s1.07.55,1.64.79A19.57,19.57,0,0,0,64.84,83a16.72,16.72,0,0,0,4.21-.55c1.14-.3,1.37-.6,1.37-1.77,0,0-1.92-26.71-1.93-27.83A1.37,1.37,0,0,0,68,51.69ZM42.7,75.09c0,1.14,0,2.28,0,3.42a10.46,10.46,0,0,0-5.54-1.74H37a12.89,12.89,0,0,0-6,1.74A16.18,16.18,0,0,1,20.2,80.27c-.16,0-.21-.06-.21-.07a.63.63,0,0,1,0-.2c0-3.29,1.93-22.37,1.93-25.75v0a9.83,9.83,0,0,0,5.39-.2,25.57,25.57,0,0,0,6-2.37,7.9,7.9,0,0,1,9.17,1.26.8.8,0,0,1,.27.65c.05,2.19,0,4.42,0,6.58s0,4.19,0,6.29C42.74,69.31,42.72,72.25,42.7,75.09ZM68,80.2a.52.52,0,0,1-.22.07A16.19,16.19,0,0,1,57,78.51a12.86,12.86,0,0,0-6-1.74h-.16a10.48,10.48,0,0,0-5.54,1.74c0-1.14,0-2.28,0-3.42,0-2.84,0-5.78,0-8.67,0-2.1,0-4.23,0-6.29s-.06-4.39,0-6.58a.77.77,0,0,1,.27-.65,7.88,7.88,0,0,1,9.16-1.26,25.65,25.65,0,0,0,6,2.37,9.83,9.83,0,0,0,5.39.2v0C66.07,57.63,68,76.71,68,80,68,80.15,68,80.2,68,80.2Z"/><path class="cls-1" d="M26.63,15.36V12.82a38.46,38.46,0,0,0-14.17,8.27h3.71A36.08,36.08,0,0,1,26.63,15.36Z"/><path class="cls-1" d="M38.41,11a39.69,39.69,0,0,0-5.9.45v2.44a37,37,0,0,1,5.9-.48A36,36,0,0,1,71,64.65c.1,1.45.21,3,.32,4.5A38.4,38.4,0,0,0,38.41,11Z"/><path class="cls-1" d="M54.91,82.15l-.76-.38A36,36,0,0,1,28.43,84a19.93,19.93,0,0,1-5.06.75,38.34,38.34,0,0,0,33.5-1.67L56.68,83C56.05,82.73,55.47,82.43,54.91,82.15Z"/><path class="cls-1" d="M2.41,49.38A35.89,35.89,0,0,1,10.25,27h-3a38.37,38.37,0,0,0,8.6,53.47c.07-.92.14-1.88.21-2.87A36,36,0,0,1,2.41,49.38Z"/></svg>